<svg width="542" height="86" viewBox="0 0 542 86" fill="none" xmlns="http://www.w3.org/2000/svg">
<g clip-path="url(#clip0_4_15)">
<path d="M0 78.71L27.28 18.9L43.37 19.1L15.98 78.91L0 78.71Z" fill="#E32227"/>
<path d="M19.5 78.95L46.78 19.15L62.87 19.35L35.48 79.15L19.5 78.95Z" fill="#1197D4"/>
<path d="M38.77 79.19L66.04 19.39L82.14 19.59L54.74 79.39L38.77 79.19Z" fill="white"/>
<path d="M98 55.7L102.16 47.16L126.28 47.46L125.94 80.73L60.69 79.92L88.18 19.91L126.87 20.39L126.64 43.18L105.73 42.92L105.6 40.19L100.27 40.12L91.46 59.58L105.32 59.83L105.36 55.87L98 55.7Z" fill="#DD1F26"/>
<path d="M131.42 0L152.21 0.26L151.51 81.05L130.6 80.79L131.42 0Z" fill="#DD1F26"/>
<path d="M177.26 21.02L177.06 41.08L155.91 40.82L156.12 20.75L177.26 21.02Z" fill="#DD1F26"/>
<path d="M181.98 22.97C181.98 22.97 182.39 21.32 183.96 21.1L233.38 21.72L233.18 41.29L202.71 40.91L202.51 61.05L232.98 61.43L232.77 81.66L183.35 81.04C183.35 81.04 181.48 80.19 181.41 79.36C181.34 78.53 181.98 22.98 181.98 22.98V22.97Z" fill="#DD1F26"/>
<path d="M297.91 22.52L240.23 21.8C238.11 21.94 237.74 23.83 237.74 23.83L237.17 80.05C238.01 81.71 239.35 81.73 239.35 81.73C239.35 81.73 295.81 82.68 297.62 82.46C299.43 82.23 299.67 80.59 299.67 80.59L300.24 24.62C299.91 22.8 297.91 22.53 297.91 22.53V22.52ZM279.25 62.5L258.42 62.24L258.62 42.1L279.45 42.36L279.25 62.5Z" fill="#DD1F26"/>
<path d="M339.86 81.47C337.5 82.5 333.37 83.43 329.84 83.38C324.88 83.32 320.27 81.84 316.54 77.46C312.47 72.8 309.78 64.53 309.98 53.55C310.3 30.25 321.64 22.51 331.64 22.64C335.17 22.68 337.94 23.43 339.61 24.42L338.12 30.25C336.62 29.43 334.69 28.79 331.66 28.75C324.6 28.66 316.89 34.5 316.71 53.01C316.52 71.43 323.1 77.45 329.91 77.54C332.09 77.57 333.36 77.23 333.87 76.88L334.07 57.39L326.76 57.3L326.82 51.63L340.18 51.8L339.88 81.47H339.86Z" fill="white"/>
<path d="M369.62 55L355.42 54.82L355.19 77.23L371.32 77.43L371.26 83.36L348.66 83.08L349.27 23.38L370.87 23.65L370.81 29.58L355.68 29.39L355.48 49.05L369.68 49.23L369.62 54.99V55Z" fill="white"/>
<path d="M378.49 83.46L379.1 23.76L385.15 23.84L395.29 51.96C397.58 58.46 400.44 66.38 402.3 72.87H402.47C402.06 63.48 401.89 55.77 401.99 45.4L402.21 24.05L408.01 24.12L407.4 83.82L401.35 83.74L390.89 54.91C388.6 48.86 386.23 42.01 384.29 34.54H384.12C384.54 42.52 384.63 50.14 384.5 62.89L384.29 83.53L378.49 83.46Z" fill="white"/>
<path d="M438.44 55.86L424.24 55.68L424.01 78.09L440.14 78.29L440.08 84.22L417.48 83.94L418.09 24.24L439.69 24.51L439.63 30.44L424.5 30.25L424.3 49.91L438.5 50.09L438.44 55.85V55.86Z" fill="white"/>
<path d="M447.91 25.5C450.61 24.74 453.97 24.42 457.17 24.46C462.8 24.53 466.99 25.82 469.9 28.87C472.64 31.92 473.78 35.92 473.73 40.61C473.65 48.23 470.24 53.15 464.5 55.91V56.09C468.69 57.47 470.83 61.75 471.92 69.56C473.18 77.73 474.22 82.79 475.04 84.66L468.49 84.58C467.67 82.8 466.63 77.12 465.61 69.84C464.43 61.59 462.03 58.54 456.48 58.48L453.96 58.45L453.7 84.4L447.31 84.32L447.91 25.5ZM454.02 53.13L456.79 53.16C462.92 53.24 467.09 48.5 467.16 41.33C467.23 34.42 464.58 30.14 457.69 29.96C456.35 29.94 455.08 30.02 454.24 30.27L454.01 53.12L454.02 53.13Z" fill="white"/>
<path d="M489.09 66.94L485.21 84.79L478.91 84.71L492.46 25.17L499.6 25.26L511.6 85.12L505.21 85.04L501.69 67.1L489.09 66.94ZM500.83 61.59L498.04 46.41C497.24 42.15 496.54 37.18 495.91 32.74H495.66C494.94 37.25 494.05 42.37 493.17 46.35L490.07 61.46L500.83 61.59Z" fill="white"/>
<path d="M519.26 25.5L525.73 25.58L525.18 79.52L541.06 79.72L541 85.48L518.65 85.2L519.26 25.5Z" fill="white"/>
<path d="M155.88 44.61L177.02 44.88L176.65 81.36L155.5 81.1L155.88 44.61Z" fill="#DD1F26"/>
</g>
<defs>
<clipPath id="clip0_4_15">
<rect width="541.06" height="85.48" fill="white"/>
</clipPath>
</defs>
</svg>
